{
	"asset":{
		"version":"2.0",
		"generator":"Created using the official Cinema 4D glTF Exporter 1.000x284978"
	},
	"scenes":[{
		"nodes":[0]
	}],
	"materials":[{
		"pbrMetallicRoughness":{
			"baseColorTexture":{
				"index":0
			},
			"baseColorFactor":[0.8,
			0.8,
			0.8,
			1.0],
			"metallicFactor":0.0,
			"roughnessFactor":0.5
		},
		"emissiveFactor":[0.0,
		0.0,
		0.0],
		"alphaMode":"OPAQUE",
		"doubleSided":true,
		"name":"材质.5"
	}],
	"nodes":[{
		"name":"地形",
		"translation":[0.0,
		0.0,
		0.0],
		"rotation":[0.0,
		0.0,
		0.0,
		-1.0],
		"scale":[1.0,
		1.0,
		1.0],
		"mesh":0
	}],
	"meshes":[{
		"name":"地形",
		"primitives":[{
			"attributes":{
				"POSITION":1,
				"NORMAL":2,
				"TEXCOORD_0":3
			},
			"indices":0,
			"material":0
		}]
	}],
	"accessors":[{
		"bufferView":0,
		"type":"SCALAR",
		"componentType":5123,
		"count":60000,
		"byteOffset":0,
		"min":[0],
		"max":[10200]
	},
	{
		"bufferView":1,
		"type":"VEC3",
		"componentType":5126,
		"count":10201,
		"byteOffset":0,
		"min":[-47.619049072265628,
		0.0,
		-47.61904525756836],
		"max":[47.61904525756836,
		72.13213348388672,
		47.619049072265628]
	},
	{
		"bufferView":1,
		"type":"VEC3",
		"componentType":5126,
		"count":10201,
		"byteOffset":12,
		"min":[-0.9741085767745972,
		0.16045784950256349,
		-0.9646601676940918],
		"max":[0.9769160747528076,
		1.0,
		0.9834272265434265]
	},
	{
		"bufferView":1,
		"type":"VEC2",
		"componentType":5126,
		"count":10201,
		"byteOffset":24,
		"min":[0.0,
		0.0],
		"max":[1.0,
		1.0]
	}],
	"bufferViews":[{
		"buffer":0,
		"byteOffset":0,
		"byteLength":120000,
		"target":34963
	},
	{
		"buffer":0,
		"byteStride":32,
		"byteOffset":120000,
		"byteLength":326432,
		"target":34962
	}],
	"buffers":[{
		"uri":"data:application/octet-stream;base64,",
		"byteLength":446432
	}],
	"images":[{
		"uri":"data:image/jpeg;base64,"
	}],
	"samplers":[{
		"magFilter":9729,
		"minFilter":9729,
		"wrapS":10497,
		"wrapT":10497
	}],
	"textures":[{
		"sampler":0,
		"source":0
	}]
}